<svg width="966" height="283" viewBox="0 0 966 283" fill="none" xmlns="http://www.w3.org/2000/svg">
<g filter="url(#filter0_d_459_3369)">
<path d="M4 276.205V232.332L15.3705 224.889L46.3453 139.102L15.3705 53.3154L4 45.8727V2H49.0899L83.5935 96.7965L118.097 2H163.187V45.8727L151.816 53.3154L120.842 139.102L151.816 224.889L163.187 232.332V276.205H118.097L83.5935 181.408L49.0899 276.205H4Z" fill="url(#paint0_linear_459_3369)"/>
</g>
<g filter="url(#filter1_d_459_3369)">
<path d="M183 147.279V134.594L187.218 132.442L198.708 107.639L187.218 82.8364L183 80.6846V68H199.726L212.525 95.4077L225.324 68H242.05V80.6846L237.833 82.8364L226.342 107.639L237.833 132.442L242.05 134.594V147.279H225.324L212.525 119.871L199.726 147.279H183ZM264.303 147.279L250.777 136.746V121.909H269.103V130.857L271.867 133.008H286.702L289.465 130.857V116.926L286.702 114.774H264.303L250.777 104.242V78.5327L264.303 68H294.265L307.791 78.5327V93.3691H289.465V84.422L286.702 82.2701H271.867L269.103 84.422V98.3524L271.867 100.504H294.265L307.791 111.037V136.746L294.265 147.279H264.303ZM316.518 147.279V134.594L319.572 133.008V82.2701L316.518 80.6846V68H369.46V84.6485H353.17L351.134 82.2701H337.898V100.504H361.315V114.774H337.898V133.008H351.134L353.17 130.63H369.46V147.279H316.518ZM391.713 147.279L378.186 136.746V78.5327L391.713 68H423.71L437.237 78.5327V93.3691H418.911V84.422L416.147 82.2701H399.276L396.512 84.422V130.857L399.276 133.008H416.147L418.911 130.857V121.909H437.237V136.746L423.71 147.279H391.713ZM462.544 147.279L449.018 136.746V82.2701L445.963 80.6846V68H470.398V80.6846L467.344 82.2701V130.857L470.107 133.008H486.979L489.742 130.857V82.2701L486.688 80.6846V68H511.123V80.6846L508.068 82.2701V136.746L494.542 147.279H462.544ZM556.937 147.279V134.594L559.555 133.235L554.465 117.946H541.229V133.008L544.284 134.594V147.279H519.849V134.594L522.903 133.008V82.2701L519.849 80.6846V68H566.391L579.918 78.5327V107.413L572.064 113.642L578.318 132.555L581.954 134.594V147.279H556.937ZM541.229 103.675H558.828L561.592 101.524V84.422L558.828 82.2701H541.229V103.675ZM589.372 147.279V134.594L592.426 133.008V82.2701L589.372 80.6846V68H642.313V84.6485H626.024L623.987 82.2701H610.752V100.504H634.168V114.774H610.752V133.008H623.987L626.024 130.63H642.313V147.279H589.372ZM690.746 147.279L677.22 136.746V78.5327L690.746 68H722.744L736.27 78.5327V93.3691H717.944V84.422L715.181 82.2701H698.309L695.546 84.422V130.857L698.309 133.008H715.181L717.944 130.857V114.774H711.836L708.781 113.189V100.504H736.27V136.746L722.744 147.279H690.746ZM744.997 147.279V134.594L748.051 133.008V82.2701L744.997 80.6846V68H767.541L782.667 98.0126L797.793 68H820.337V80.6846L817.283 82.2701V133.008L820.337 134.594V147.279H795.903V134.594L798.957 133.008V104.808L789.939 122.702H775.395L766.377 104.808V133.008L769.432 134.594V147.279H744.997ZM829.064 147.279V134.594L832.118 133.008V82.2701L829.064 80.6846V68H874.588L888.114 78.5327V101.863L880.697 107.639L888.114 113.415V136.746L874.588 147.279H829.064ZM850.444 133.008H867.025L869.788 130.857V119.305L863.97 114.774H850.444V133.008ZM850.444 100.504H863.97L869.788 95.974V84.422L867.025 82.2701H850.444V100.504ZM896.841 147.279V134.594L899.895 133.008V82.2701L896.841 80.6846V68H921.276V80.6846L918.221 82.2701V100.504H940.62V82.2701L937.565 80.6846V68H962V80.6846L958.946 82.2701V133.008L962 134.594V147.279H937.565V134.594L940.62 133.008V114.774H918.221V133.008L921.276 134.594V147.279H896.841Z" fill="#2C3E50"/>
</g>
<g filter="url(#filter2_d_459_3369)">
<path d="M198.188 154.279H228.286V168.22H218.253V163.573H198.188V177.514H213.237V186.809H198.188V200.75H203.204V210.044H198.188H188.156H183V200.75H188.156V163.573H183V154.279H188.156H198.188ZM285.527 200.879H290.543V210.174H275.495V191.585H255.429V210.174H240.241V200.879H245.397V172.996C245.397 172.48 245.397 168.349 247.766 163.96C251.11 157.764 257.38 154.408 265.462 154.408C273.544 154.408 279.814 157.764 283.158 163.96C285.388 168.349 285.527 172.48 285.527 172.996V200.879ZM255.429 182.291H275.495V172.996C275.495 172.867 275.355 170.286 273.962 167.833C272.429 164.993 269.642 163.702 265.462 163.702C261.282 163.702 258.495 164.993 256.962 167.833C255.569 170.286 255.429 172.867 255.429 172.996V182.291ZM327.302 163.702C322.425 163.702 317.269 165.638 317.269 170.802C317.269 173.255 317.826 174.933 318.941 175.965C320.753 177.773 324.793 177.773 327.302 177.644C330.646 177.644 337.892 177.644 342.768 182.033C345.834 184.872 347.367 188.874 347.367 193.909C347.367 198.685 345.277 202.945 341.375 205.914C337.752 208.754 332.875 210.174 327.302 210.174C323.679 210.174 320.195 209.528 317.269 208.366V210.174H307.236V196.232H317.269C317.269 196.748 317.687 197.394 318.384 198.039C319.08 198.685 321.867 200.879 327.302 200.879C330.506 200.879 333.154 200.105 334.965 198.814C336.498 197.523 337.334 195.974 337.334 193.909C337.334 191.456 336.777 189.649 335.662 188.745C333.711 186.938 329.81 186.938 327.302 186.938C323.539 187.067 316.572 187.067 311.835 182.549C308.769 179.709 307.236 175.836 307.236 170.802C307.236 161.12 315.458 154.408 327.302 154.408C330.924 154.408 334.269 155.053 337.334 156.215V154.408H347.367V168.349H337.334C337.334 166.8 333.851 163.702 327.302 163.702ZM393.739 154.408H413.805V172.996H403.772V163.702H393.739V200.879H398.756V210.174H393.739H383.707H378.691V200.879H383.707V163.702H373.674V172.996H363.642V154.408H383.707H393.739ZM510.173 200.879H515.189V210.174H500.14V191.585H480.075V210.174H464.887V200.879H470.043V172.996C470.043 172.48 470.043 168.349 472.411 163.96C475.756 157.764 482.026 154.408 490.108 154.408C498.189 154.408 504.46 157.764 507.804 163.96C510.033 168.349 510.173 172.48 510.173 172.996V200.879ZM480.075 182.291H500.14V172.996C500.14 172.867 500.001 170.286 498.607 167.833C497.075 164.993 494.288 163.702 490.108 163.702C485.927 163.702 483.141 164.993 481.608 167.833C480.214 170.286 480.075 172.867 480.075 172.996V182.291ZM592.495 154.408V163.702H587.479V210.174H574.66L547.349 168.091V200.879H552.365V210.174H547.349H537.316H532.3V200.879H537.316V163.702H532.3V154.408H537.316H547.349H550.275L577.447 196.49V163.702H572.43V154.408H592.495ZM638.311 154.408C654.892 154.408 668.408 166.929 668.408 182.291C668.408 197.652 654.892 210.174 638.311 210.174H625.491H615.459H610.303V200.879H615.459V163.702H610.303V154.408H615.459H625.491H638.311ZM638.311 200.879C649.319 200.879 658.376 192.489 658.376 182.291C658.376 172.093 649.319 163.702 638.311 163.702H625.491V200.879H638.311ZM740.531 163.702C735.654 163.702 730.499 165.638 730.499 170.802C730.499 173.255 731.056 174.933 732.171 175.965C733.982 177.773 738.023 177.773 740.531 177.644C743.876 177.644 751.121 177.644 755.998 182.033C759.064 184.872 760.596 188.874 760.596 193.909C760.596 198.685 758.506 202.945 754.605 205.914C750.982 208.754 746.105 210.174 740.531 210.174C736.908 210.174 733.425 209.528 730.499 208.366V210.174H720.466V196.232H730.499C730.499 196.748 730.917 197.394 731.614 198.039C732.31 198.685 735.097 200.879 740.531 200.879C743.736 200.879 746.384 200.105 748.195 198.814C749.728 197.523 750.564 195.974 750.564 193.909C750.564 191.456 750.007 189.649 748.892 188.745C746.941 186.938 743.039 186.938 740.531 186.938C736.769 187.067 729.802 187.067 725.064 182.549C721.999 179.709 720.466 175.836 720.466 170.802C720.466 161.12 728.687 154.408 740.531 154.408C744.154 154.408 747.498 155.053 750.564 156.215V154.408H760.596V168.349H750.564C750.564 166.8 747.08 163.702 740.531 163.702ZM822.436 200.879H827.452V210.174H812.403V191.585H792.338V210.174H777.15V200.879H782.306V172.996C782.306 172.48 782.306 168.349 784.675 163.96C788.019 157.764 794.289 154.408 802.371 154.408C810.453 154.408 816.723 157.764 820.067 163.96C822.297 168.349 822.436 172.48 822.436 172.996V200.879ZM792.338 182.291H812.403V172.996C812.403 172.867 812.264 170.286 810.871 167.833C809.338 164.993 806.551 163.702 802.371 163.702C798.191 163.702 795.404 164.993 793.871 167.833C792.478 170.286 792.338 172.867 792.338 172.996V182.291ZM900.3 154.408V163.702H893.751L876.333 210.174H864.071L846.653 163.702H839.965V154.408H860.17V163.702H857.243L870.202 198.039L883.161 163.702H880.235V154.408H900.3ZM962 168.349H951.967V163.702H931.902V177.644H946.951V186.938H931.902V200.879H951.967V196.232H962V210.174H931.902H921.87H916.714V200.879H921.87V163.702H916.714V154.408H921.87H931.902H962V168.349Z" fill="#2C3E50"/>
</g>
<defs>
<filter id="filter0_d_459_3369" x="0" y="0" width="167.188" height="282.205" filterUnits="userSpaceOnUse" color-interpolation-filters="sRGB">
<feFlood flood-opacity="0" result="BackgroundImageFix"/>
<feColorMatrix in="SourceAlpha" type="matrix" values="0 0 0 0 0 0 0 0 0 0 0 0 0 0 0 0 0 0 127 0" result="hardAlpha"/>
<feOffset dy="2"/>
<feGaussianBlur stdDeviation="2"/>
<feComposite in2="hardAlpha" operator="out"/>
<feColorMatrix type="matrix" values="0 0 0 0 0 0 0 0 0 0 0 0 0 0 0 0 0 0 0.25 0"/>
<feBlend mode="normal" in2="BackgroundImageFix" result="effect1_dropShadow_459_3369"/>
<feBlend mode="normal" in="SourceGraphic" in2="effect1_dropShadow_459_3369" result="shape"/>
</filter>
<filter id="filter1_d_459_3369" x="179" y="66" width="787" height="87.2788" filterUnits="userSpaceOnUse" color-interpolation-filters="sRGB">
<feFlood flood-opacity="0" result="BackgroundImageFix"/>
<feColorMatrix in="SourceAlpha" type="matrix" values="0 0 0 0 0 0 0 0 0 0 0 0 0 0 0 0 0 0 127 0" result="hardAlpha"/>
<feOffset dy="2"/>
<feGaussianBlur stdDeviation="2"/>
<feComposite in2="hardAlpha" operator="out"/>
<feColorMatrix type="matrix" values="0 0 0 0 0 0 0 0 0 0 0 0 0 0 0 0 0 0 0.25 0"/>
<feBlend mode="normal" in2="BackgroundImageFix" result="effect1_dropShadow_459_3369"/>
<feBlend mode="normal" in="SourceGraphic" in2="effect1_dropShadow_459_3369" result="shape"/>
</filter>
<filter id="filter2_d_459_3369" x="179" y="152.279" width="787" height="63.8945" filterUnits="userSpaceOnUse" color-interpolation-filters="sRGB">
<feFlood flood-opacity="0" result="BackgroundImageFix"/>
<feColorMatrix in="SourceAlpha" type="matrix" values="0 0 0 0 0 0 0 0 0 0 0 0 0 0 0 0 0 0 127 0" result="hardAlpha"/>
<feOffset dy="2"/>
<feGaussianBlur stdDeviation="2"/>
<feComposite in2="hardAlpha" operator="out"/>
<feColorMatrix type="matrix" values="0 0 0 0 0 0 0 0 0 0 0 0 0 0 0 0 0 0 0.25 0"/>
<feBlend mode="normal" in2="BackgroundImageFix" result="effect1_dropShadow_459_3369"/>
<feBlend mode="normal" in="SourceGraphic" in2="effect1_dropShadow_459_3369" result="shape"/>
</filter>
<linearGradient id="paint0_linear_459_3369" x1="83.5935" y1="2" x2="83.5935" y2="276.205" gradientUnits="userSpaceOnUse">
<stop stop-color="#FF9900"/>
<stop offset="1" stop-color="#FFBD5A"/>
</linearGradient>
</defs>
</svg>
